<mxfile host="app.diagrams.net" modified="2021-08-09T15:23:57.007Z" agent="5.0 (Windows NT 10.0; Win64; x64) AppleWebKit/537.36 (KHTML, like Gecko) Chrome/92.0.4515.131 Safari/537.36" etag="6pxlwE2cKg1cmyIDJtff" version="14.9.5" type="github" pages="2">
  <diagram id="gxRKHkLpk5Vxv9CwUDUs" name="03 Traffic Manager">
    <mxGraphModel dx="1435" dy="765" grid="1" gridSize="10" guides="1" tooltips="1" connect="1" arrows="1" fold="1" page="1" pageScale="1" pageWidth="850" pageHeight="1100" math="0" shadow="0">
      <root>
        <mxCell id="0lUzmIgK4o1mHfEmQP6s-0" />
        <mxCell id="0lUzmIgK4o1mHfEmQP6s-1" parent="0lUzmIgK4o1mHfEmQP6s-0" />
        <mxCell id="0lUzmIgK4o1mHfEmQP6s-2" value="&lt;b&gt;Users&lt;/b&gt;&lt;br&gt;WestUS" style="verticalLabelPosition=bottom;html=1;verticalAlign=top;align=center;strokeColor=none;fillColor=#00BEF2;shape=mxgraph.azure.user;fontFamily=segoe ui;" vertex="1" parent="0lUzmIgK4o1mHfEmQP6s-1">
          <mxGeometry x="140" y="480" width="47.5" height="50" as="geometry" />
        </mxCell>
        <mxCell id="0lUzmIgK4o1mHfEmQP6s-3" value="&lt;b&gt;Users&lt;/b&gt;&lt;br&gt;South East Asia" style="verticalLabelPosition=bottom;html=1;verticalAlign=top;align=center;strokeColor=none;fillColor=#00BEF2;shape=mxgraph.azure.user;fontFamily=segoe ui;" vertex="1" parent="0lUzmIgK4o1mHfEmQP6s-1">
          <mxGeometry x="450" y="480" width="47.5" height="50" as="geometry" />
        </mxCell>
        <mxCell id="0lUzmIgK4o1mHfEmQP6s-4" value="Azure Traffic &lt;br&gt;Manager Profile" style="verticalLabelPosition=bottom;html=1;verticalAlign=top;align=center;strokeColor=none;fillColor=#00BEF2;shape=mxgraph.azure.traffic_manager;pointerEvents=1;fontFamily=segoe ui;" vertex="1" parent="0lUzmIgK4o1mHfEmQP6s-1">
          <mxGeometry x="290" y="310" width="50" height="50" as="geometry" />
        </mxCell>
        <mxCell id="0lUzmIgK4o1mHfEmQP6s-5" value="&lt;b&gt;Website&lt;/b&gt;&lt;br&gt;WestUS" style="verticalLabelPosition=bottom;html=1;verticalAlign=top;align=center;strokeColor=none;fillColor=#00BEF2;shape=mxgraph.azure.azure_website;pointerEvents=1;fontFamily=segoe ui;" vertex="1" parent="0lUzmIgK4o1mHfEmQP6s-1">
          <mxGeometry x="140" y="140" width="50" height="50" as="geometry" />
        </mxCell>
        <mxCell id="0lUzmIgK4o1mHfEmQP6s-6" value="&lt;b&gt;Website&lt;/b&gt;&lt;br&gt;South East Asia" style="verticalLabelPosition=bottom;html=1;verticalAlign=top;align=center;strokeColor=none;fillColor=#00BEF2;shape=mxgraph.azure.azure_website;pointerEvents=1;fontFamily=segoe ui;" vertex="1" parent="0lUzmIgK4o1mHfEmQP6s-1">
          <mxGeometry x="440" y="140" width="50" height="50" as="geometry" />
        </mxCell>
        <mxCell id="0lUzmIgK4o1mHfEmQP6s-7" value="" style="endArrow=classic;html=1;fontFamily=segoe ui;" edge="1" parent="0lUzmIgK4o1mHfEmQP6s-1">
          <mxGeometry width="50" height="50" relative="1" as="geometry">
            <mxPoint x="439.9999999999998" y="460" as="sourcePoint" />
            <mxPoint x="369.9999999999998" y="400" as="targetPoint" />
          </mxGeometry>
        </mxCell>
        <mxCell id="0lUzmIgK4o1mHfEmQP6s-8" value="" style="endArrow=classic;html=1;fontFamily=segoe ui;" edge="1" parent="0lUzmIgK4o1mHfEmQP6s-1">
          <mxGeometry width="50" height="50" relative="1" as="geometry">
            <mxPoint x="359.9999999999998" y="410" as="sourcePoint" />
            <mxPoint x="429.9999999999998" y="470" as="targetPoint" />
          </mxGeometry>
        </mxCell>
        <mxCell id="0lUzmIgK4o1mHfEmQP6s-9" value="" style="endArrow=classic;html=1;fontFamily=segoe ui;" edge="1" parent="0lUzmIgK4o1mHfEmQP6s-1">
          <mxGeometry width="50" height="50" relative="1" as="geometry">
            <mxPoint x="339.9999999999998" y="290" as="sourcePoint" />
            <mxPoint x="389.9999999999998" y="230" as="targetPoint" />
          </mxGeometry>
        </mxCell>
        <mxCell id="0lUzmIgK4o1mHfEmQP6s-10" value="" style="endArrow=classic;html=1;fontFamily=segoe ui;" edge="1" parent="0lUzmIgK4o1mHfEmQP6s-1">
          <mxGeometry width="50" height="50" relative="1" as="geometry">
            <mxPoint x="399.9999999999998" y="240" as="sourcePoint" />
            <mxPoint x="349.9999999999998" y="300" as="targetPoint" />
          </mxGeometry>
        </mxCell>
      </root>
    </mxGraphModel>
  </diagram>
  <diagram id="481fZEa8v-3EdEy7qi1i" name="Page-1">
    <mxGraphModel dx="2079" dy="1162" grid="0" gridSize="10" guides="1" tooltips="1" connect="1" arrows="1" fold="1" page="1" pageScale="1" pageWidth="850" pageHeight="1100" math="0" shadow="0">
      <root>
        <mxCell id="0" />
        <mxCell id="1" parent="0" />
        <mxCell id="rs6OmPeVjxESHgAm6vJc-1" value="" style="outlineConnect=0;fontColor=#232F3E;gradientColor=none;fillColor=#C7131F;strokeColor=none;dashed=0;verticalLabelPosition=bottom;verticalAlign=top;align=center;html=1;fontSize=12;fontStyle=0;aspect=fixed;pointerEvents=1;shape=mxgraph.aws4.certificate_manager_2;fontFamily=segoe ui;" parent="1" vertex="1">
          <mxGeometry x="89.5" y="230" width="58" height="53.54" as="geometry" />
        </mxCell>
        <mxCell id="rs6OmPeVjxESHgAm6vJc-2" value="" style="verticalLabelPosition=bottom;html=1;verticalAlign=top;align=center;strokeColor=none;fillColor=#00BEF2;shape=mxgraph.azure.user;fontFamily=segoe ui;" parent="1" vertex="1">
          <mxGeometry x="94.75" y="440" width="47.5" height="50" as="geometry" />
        </mxCell>
        <mxCell id="rs6OmPeVjxESHgAm6vJc-3" value="" style="verticalLabelPosition=bottom;html=1;verticalAlign=top;align=center;strokeColor=none;fillColor=#00BEF2;shape=mxgraph.azure.enterprise;pointerEvents=1;fontFamily=segoe ui;" parent="1" vertex="1">
          <mxGeometry x="380" y="440" width="30" height="50" as="geometry" />
        </mxCell>
        <mxCell id="rs6OmPeVjxESHgAm6vJc-4" value="" style="endArrow=classic;html=1;fontFamily=segoe ui;" parent="1" edge="1">
          <mxGeometry width="50" height="50" relative="1" as="geometry">
            <mxPoint x="110" y="420" as="sourcePoint" />
            <mxPoint x="110" y="300" as="targetPoint" />
          </mxGeometry>
        </mxCell>
        <mxCell id="rs6OmPeVjxESHgAm6vJc-5" value="" style="endArrow=classic;html=1;fontFamily=segoe ui;" parent="1" edge="1">
          <mxGeometry width="50" height="50" relative="1" as="geometry">
            <mxPoint x="130" y="300" as="sourcePoint" />
            <mxPoint x="130" y="420" as="targetPoint" />
          </mxGeometry>
        </mxCell>
        <mxCell id="rs6OmPeVjxESHgAm6vJc-6" value="" style="endArrow=classic;html=1;fontFamily=segoe ui;" parent="1" edge="1">
          <mxGeometry width="50" height="50" relative="1" as="geometry">
            <mxPoint x="170" y="467" as="sourcePoint" />
            <mxPoint x="340" y="467" as="targetPoint" />
          </mxGeometry>
        </mxCell>
        <mxCell id="rs6OmPeVjxESHgAm6vJc-7" value="" style="endArrow=classic;html=1;fontFamily=segoe ui;" parent="1" edge="1">
          <mxGeometry width="50" height="50" relative="1" as="geometry">
            <mxPoint x="340" y="482" as="sourcePoint" />
            <mxPoint x="170" y="482" as="targetPoint" />
          </mxGeometry>
        </mxCell>
        <mxCell id="rs6OmPeVjxESHgAm6vJc-9" value="&lt;b&gt;Step 1&lt;/b&gt;: User aquires a verifiable credentials" style="text;html=1;align=center;verticalAlign=middle;resizable=0;points=[];autosize=1;strokeColor=none;rotation=-90;fontFamily=segoe ui;" parent="1" vertex="1">
          <mxGeometry x="-55" y="350" width="240" height="20" as="geometry" />
        </mxCell>
        <mxCell id="rs6OmPeVjxESHgAm6vJc-10" value="&lt;b&gt;Step 2&lt;/b&gt;: Verifies the user &lt;br&gt;and stores the keys on&amp;nbsp;DPKI" style="text;html=1;align=left;verticalAlign=middle;resizable=0;points=[];autosize=1;strokeColor=none;rotation=0;fontFamily=segoe ui;" parent="1" vertex="1">
          <mxGeometry x="155" y="240" width="160" height="30" as="geometry" />
        </mxCell>
        <mxCell id="rs6OmPeVjxESHgAm6vJc-11" value="&lt;b&gt;Step 3&lt;/b&gt;: Verfies the credential presentation &lt;br&gt;from the DPKI" style="text;html=1;align=center;verticalAlign=middle;resizable=0;points=[];autosize=1;strokeColor=none;rotation=0;fontFamily=segoe ui;" parent="1" vertex="1">
          <mxGeometry x="135" y="490" width="240" height="30" as="geometry" />
        </mxCell>
      </root>
    </mxGraphModel>
  </diagram>
</mxfile>
